# xmcd
#
# Track frame offsets:
#	150
#	21277
#	32965
#	41745
#	57475
#	68675
#	80332
#	90002
#	102065
#	118527
#	130365
#	143975
#	163485
#	175207
#	188732
#	199177
#	210307
#	222402
#	234070
#	248602
#	256865
#	264987
#	278797
#	298815
#	312822
#
# Disc length: 4447 seconds
#
# Revision: 1
# Processed by: cddbd v1.5PL3 Copyright (c) Steve Scherf et al.
# Submitted via: audiograbber 1.82.02
#
DISCID=64115d19
DTITLE=Ladislav Vodicka - Byl to Shane
DYEAR=1999
DGENRE=Country
TTITLE0=Shane
TTITLE1=Je to zle
TTITLE2=Big City
TTITLE3=Rezava mriz
TTITLE4=Operation X
TTITLE5=Silver Rails
TTITLE6=Fireball Mail
TTITLE7=Slunecni spar
TTITLE8=Jsem tulak
TTITLE9=Ridic tvrdy chleba ma
TTITLE10=Bila velryba
TTITLE11=Balada drevorubce
TTITLE12=Bylo ji sestnact
TTITLE13=Ja tu zemi znam
TTITLE14=Blue Train
TTITLE15=Tva noha musi stale jit
TTITLE16=V jeskynich
TTITLE17=Bludne hory
TTITLE18=Toulava hvezda
TTITLE19=Chattanooga Choo Choo
TTITLE20=Deep In The Heart Of Texas
TTITLE21=Tom Dooley
TTITLE22=Teddy Bear
TTITLE23=Sedy vlas
TTITLE24=Shane (angl. verze)
EXTD=
EXTT0=
EXTT1=
EXTT2=
EXTT3=
EXTT4=
EXTT5=
EXTT6=
EXTT7=
EXTT8=
EXTT9=
EXTT10=
EXTT11=
EXTT12=
EXTT13=
EXTT14=
EXTT15=
EXTT16=
EXTT17=
EXTT18=
EXTT19=
EXTT20=
EXTT21=
EXTT22=
EXTT23=
EXTT24=
PLAYORDER=
